<mxfile host="app.diagrams.net" modified="2022-04-27T11:43:47.655Z" agent="5.0 (Windows NT 10.0; Win64; x64) AppleWebKit/537.36 (KHTML, like Gecko) Chrome/100.0.4896.127 Safari/537.36" etag="-TTPcMS-6GSPVMjscUef" version="17.4.6" type="github">
  <diagram id="R2lEEEUBdFMjLlhIrx00" name="Page-1">
    <mxGraphModel dx="1038" dy="571" grid="1" gridSize="10" guides="1" tooltips="1" connect="1" arrows="1" fold="1" page="1" pageScale="1" pageWidth="850" pageHeight="1100" math="0" shadow="0" extFonts="Permanent Marker^https://fonts.googleapis.com/css?family=Permanent+Marker">
      <root>
        <mxCell id="0" />
        <mxCell id="1" parent="0" />
        <mxCell id="qkKg6w1-fn2MbPAqocQI-63" style="edgeStyle=orthogonalEdgeStyle;curved=1;rounded=0;orthogonalLoop=1;jettySize=auto;html=1;entryX=0.5;entryY=1;entryDx=0;entryDy=0;endArrow=classic;endFill=1;exitX=0.5;exitY=1;exitDx=0;exitDy=0;" edge="1" parent="1" source="qkKg6w1-fn2MbPAqocQI-36" target="qkKg6w1-fn2MbPAqocQI-62">
          <mxGeometry relative="1" as="geometry">
            <mxPoint x="354" y="300" as="sourcePoint" />
          </mxGeometry>
        </mxCell>
        <mxCell id="qkKg6w1-fn2MbPAqocQI-36" value="TAREFA" style="rounded=0;whiteSpace=wrap;html=1;shadow=0;glass=0;" vertex="1" parent="1">
          <mxGeometry x="244" y="265" width="110" height="45" as="geometry" />
        </mxCell>
        <mxCell id="qkKg6w1-fn2MbPAqocQI-42" style="rounded=0;orthogonalLoop=1;jettySize=auto;html=1;entryX=0;entryY=0;entryDx=0;entryDy=0;endArrow=classic;endFill=1;" edge="1" parent="1" source="qkKg6w1-fn2MbPAqocQI-37" target="qkKg6w1-fn2MbPAqocQI-36">
          <mxGeometry relative="1" as="geometry" />
        </mxCell>
        <mxCell id="qkKg6w1-fn2MbPAqocQI-37" value="id" style="ellipse;whiteSpace=wrap;html=1;rounded=0;shadow=0;glass=0;" vertex="1" parent="1">
          <mxGeometry x="124" y="200" width="80" height="40" as="geometry" />
        </mxCell>
        <mxCell id="qkKg6w1-fn2MbPAqocQI-43" style="edgeStyle=none;rounded=0;orthogonalLoop=1;jettySize=auto;html=1;endArrow=classic;endFill=1;" edge="1" parent="1" source="qkKg6w1-fn2MbPAqocQI-38" target="qkKg6w1-fn2MbPAqocQI-36">
          <mxGeometry relative="1" as="geometry" />
        </mxCell>
        <mxCell id="qkKg6w1-fn2MbPAqocQI-38" value="text" style="ellipse;whiteSpace=wrap;html=1;rounded=0;shadow=0;glass=0;" vertex="1" parent="1">
          <mxGeometry x="124" y="260" width="80" height="40" as="geometry" />
        </mxCell>
        <mxCell id="qkKg6w1-fn2MbPAqocQI-44" style="edgeStyle=none;rounded=0;orthogonalLoop=1;jettySize=auto;html=1;entryX=0;entryY=1;entryDx=0;entryDy=0;endArrow=classic;endFill=1;" edge="1" parent="1" source="qkKg6w1-fn2MbPAqocQI-39" target="qkKg6w1-fn2MbPAqocQI-36">
          <mxGeometry relative="1" as="geometry" />
        </mxCell>
        <mxCell id="qkKg6w1-fn2MbPAqocQI-39" value="checked" style="ellipse;whiteSpace=wrap;html=1;rounded=0;shadow=0;glass=0;" vertex="1" parent="1">
          <mxGeometry x="124" y="320" width="80" height="40" as="geometry" />
        </mxCell>
        <mxCell id="qkKg6w1-fn2MbPAqocQI-49" style="edgeStyle=orthogonalEdgeStyle;curved=1;rounded=0;orthogonalLoop=1;jettySize=auto;html=1;entryX=0.5;entryY=0;entryDx=0;entryDy=0;endArrow=classic;endFill=1;" edge="1" parent="1" source="qkKg6w1-fn2MbPAqocQI-45" target="qkKg6w1-fn2MbPAqocQI-36">
          <mxGeometry relative="1" as="geometry" />
        </mxCell>
        <mxCell id="qkKg6w1-fn2MbPAqocQI-45" value="Cadastrar" style="rhombus;whiteSpace=wrap;html=1;rounded=0;shadow=0;glass=0;" vertex="1" parent="1">
          <mxGeometry x="237.75" y="150" width="122.5" height="60" as="geometry" />
        </mxCell>
        <mxCell id="qkKg6w1-fn2MbPAqocQI-47" style="edgeStyle=orthogonalEdgeStyle;curved=1;rounded=0;orthogonalLoop=1;jettySize=auto;html=1;entryX=0.5;entryY=0;entryDx=0;entryDy=0;endArrow=classic;endFill=1;" edge="1" parent="1" source="qkKg6w1-fn2MbPAqocQI-46" target="qkKg6w1-fn2MbPAqocQI-45">
          <mxGeometry relative="1" as="geometry" />
        </mxCell>
        <mxCell id="qkKg6w1-fn2MbPAqocQI-60" style="edgeStyle=orthogonalEdgeStyle;curved=1;rounded=0;orthogonalLoop=1;jettySize=auto;html=1;entryX=0.5;entryY=0;entryDx=0;entryDy=0;endArrow=classic;endFill=1;" edge="1" parent="1" source="qkKg6w1-fn2MbPAqocQI-46" target="qkKg6w1-fn2MbPAqocQI-58">
          <mxGeometry relative="1" as="geometry" />
        </mxCell>
        <mxCell id="qkKg6w1-fn2MbPAqocQI-46" value="LISTA DE TAREFAS (HOME)" style="rounded=0;whiteSpace=wrap;html=1;shadow=0;glass=0;" vertex="1" parent="1">
          <mxGeometry x="412" y="60" width="155" height="50" as="geometry" />
        </mxCell>
        <mxCell id="qkKg6w1-fn2MbPAqocQI-61" style="edgeStyle=orthogonalEdgeStyle;curved=1;rounded=0;orthogonalLoop=1;jettySize=auto;html=1;entryX=1;entryY=0.5;entryDx=0;entryDy=0;endArrow=classic;endFill=1;exitX=0.5;exitY=1;exitDx=0;exitDy=0;" edge="1" parent="1" source="qkKg6w1-fn2MbPAqocQI-58" target="qkKg6w1-fn2MbPAqocQI-36">
          <mxGeometry relative="1" as="geometry" />
        </mxCell>
        <mxCell id="qkKg6w1-fn2MbPAqocQI-58" value="Alterar" style="rhombus;whiteSpace=wrap;html=1;rounded=0;shadow=0;glass=0;" vertex="1" parent="1">
          <mxGeometry x="428" y="150" width="122.5" height="60" as="geometry" />
        </mxCell>
        <mxCell id="qkKg6w1-fn2MbPAqocQI-64" style="edgeStyle=orthogonalEdgeStyle;curved=1;rounded=0;orthogonalLoop=1;jettySize=auto;html=1;entryX=1;entryY=0.5;entryDx=0;entryDy=0;endArrow=classic;endFill=1;exitX=0.5;exitY=0;exitDx=0;exitDy=0;" edge="1" parent="1" source="qkKg6w1-fn2MbPAqocQI-62" target="qkKg6w1-fn2MbPAqocQI-46">
          <mxGeometry relative="1" as="geometry" />
        </mxCell>
        <mxCell id="qkKg6w1-fn2MbPAqocQI-62" value="Atualizar" style="rhombus;whiteSpace=wrap;html=1;rounded=0;shadow=0;glass=0;" vertex="1" parent="1">
          <mxGeometry x="604" y="150" width="122.5" height="60" as="geometry" />
        </mxCell>
      </root>
    </mxGraphModel>
  </diagram>
</mxfile>
